<svg width="11" height="11" viewBox="0 0 11 11" fill="none" xmlns="http://www.w3.org/2000/svg">
<path d="M9.73628 7.97069C9.73628 8.11714 9.70374 8.26766 9.63458 8.41411C9.56542 8.56057 9.47592 8.69889 9.35795 8.82907C9.15861 9.04875 8.93893 9.20741 8.69077 9.30911C8.44668 9.41081 8.18225 9.4637 7.89748 9.4637C7.48253 9.4637 7.0391 9.36606 6.57126 9.16672C6.10342 8.96738 5.63559 8.69889 5.17182 8.36123C4.70398 8.0195 4.26055 7.64117 3.83746 7.22215C3.41844 6.79906 3.0401 6.35563 2.70245 5.89186C2.36886 5.42809 2.10036 4.96432 1.90509 4.50462C1.70982 4.04085 1.61218 3.59742 1.61218 3.17433C1.61218 2.8977 1.661 2.63327 1.75864 2.38918C1.85627 2.14102 2.01086 1.91321 2.22647 1.7098C2.48684 1.45351 2.77161 1.32739 3.07265 1.32739C3.18656 1.32739 3.30047 1.3518 3.40217 1.40062C3.50794 1.44944 3.60151 1.52266 3.67474 1.62844L4.61855 2.95872C4.69177 3.06043 4.74466 3.15399 4.78127 3.24349C4.81789 3.32892 4.83823 3.41436 4.83823 3.49165C4.83823 3.58929 4.80975 3.68692 4.7528 3.78049C4.69991 3.87406 4.62262 3.97169 4.52498 4.06933L4.2158 4.39071C4.17105 4.43546 4.15071 4.48835 4.15071 4.55344C4.15071 4.58598 4.15478 4.61446 4.16291 4.64701C4.17512 4.67955 4.18732 4.70396 4.19546 4.72837C4.26869 4.86262 4.3948 5.03755 4.5738 5.24909C4.75686 5.46064 4.95214 5.67625 5.16368 5.89186C5.38336 6.10747 5.5949 6.30681 5.81052 6.48988C6.02206 6.66888 6.19699 6.79092 6.33531 6.86415C6.35565 6.87228 6.38006 6.88449 6.40853 6.89669C6.44108 6.9089 6.47362 6.91297 6.51024 6.91297C6.5794 6.91297 6.63228 6.88856 6.67703 6.84381L6.98621 6.5387C7.08792 6.43699 7.18555 6.3597 7.27912 6.31088C7.37269 6.25393 7.46625 6.22545 7.56796 6.22545C7.64525 6.22545 7.72662 6.24172 7.81612 6.27833C7.90561 6.31495 7.99918 6.36783 8.10089 6.43699L9.44744 7.39301C9.55322 7.46624 9.62644 7.55167 9.67119 7.65337C9.71187 7.75507 9.73628 7.85678 9.73628 7.97069Z" stroke="#292D32" stroke-width="0.915334" stroke-miterlimit="10"/>
</svg>
